<svg width="249" height="249" viewBox="0 0 249 249" fill="none" xmlns="http://www.w3.org/2000/svg">
<rect x="54.7456" y="195.501" width="147.683" height="12.3929" fill="#008D70" stroke="#008D70" stroke-width="5.16373"/>
<rect x="202.428" y="22" width="185.894" height="12.3929" transform="rotate(90 202.428 22)" fill="#008D70" stroke="#008D70" stroke-width="5.16373"/>
<rect x="202.428" y="34.3931" width="105.34" height="12.3929" transform="rotate(-180 202.428 34.3931)" fill="#008D70" stroke="#008D70" stroke-width="5.16373"/>
<rect x="59.3931" y="204.796" width="22.204" height="12.3929" transform="rotate(90 59.3931 204.796)" fill="#008D70" stroke="#008D70" stroke-width="5.16373"/>
<path fill-rule="evenodd" clip-rule="evenodd" d="M190.035 102.554C140.077 105.556 100.09 145.543 97.0879 195.501H190.035V102.554Z" fill="#008D70"/>
<path fill-rule="evenodd" clip-rule="evenodd" d="M47.1229 199.632C50.2928 119.861 114.395 55.7588 194.166 52.5889V64.9927C121.24 68.1469 62.6809 126.706 59.5267 199.632H47.1229Z" fill="#008D70"/>
<path d="M194.166 52.5889H196.748V49.9024L194.064 50.009L194.166 52.5889ZM47.123 199.632L44.5432 199.53L44.4365 202.214H47.123V199.632ZM194.166 64.9927L194.278 67.5721L196.748 67.4653V64.9927H194.166ZM59.5268 199.632V202.214H61.9994L62.1063 199.744L59.5268 199.632ZM194.064 50.009C112.947 53.2324 47.7666 118.413 44.5432 199.53L49.7029 199.735C52.8193 121.308 115.843 58.2851 194.269 55.1687L194.064 50.009ZM196.748 64.9927V52.5889H191.585V64.9927H196.748ZM62.1063 199.744C65.2026 128.156 122.69 70.6684 194.278 67.5721L194.055 62.4132C119.791 65.6253 60.1595 125.256 56.9474 199.521L62.1063 199.744ZM47.123 202.214H59.5268V197.05H47.123V202.214Z" fill="#008D70"/>
</svg>
